<?xml version="1.0" standalone="no"?>
<!DOCTYPE svg PUBLIC "-//W3C//DTD SVG 20010904//EN"
 "http://www.w3.org/TR/2001/REC-SVG-20010904/DTD/svg10.dtd">
<svg version="1.0" xmlns="http://www.w3.org/2000/svg"
 width="882.000000pt" height="1280.000000pt" viewBox="0 0 882.000000 1280.000000"
 preserveAspectRatio="xMidYMid meet">
<metadata>
Created by potrace 1.15, written by Peter Selinger 2001-2017
</metadata>
<g transform="translate(0.000000,1280.000000) scale(0.100000,-0.100000)"
fill="#009688" stroke="none">
<path d="M7470 12789 c-110 -9 -191 -29 -320 -77 l-105 -40 -6 26 c-7 34 -27
66 -49 80 -15 9 -19 6 -23 -18 -9 -44 -64 -89 -197 -163 -67 -37 -124 -67
-125 -65 -2 2 30 47 72 101 84 111 88 108 -72 46 -119 -46 -188 -90 -247 -159
-57 -66 -86 -65 -154 6 -20 22 -41 34 -58 34 -25 0 -26 -2 -26 -54 0 -35 -5
-58 -15 -66 -21 -17 -40 -7 -40 21 0 15 -6 24 -15 24 -11 0 -14 -9 -12 -32 3
-31 -31 -113 -47 -113 -20 0 -33 33 -35 87 -1 62 -7 68 -46 41 -24 -17 -24
-18 -5 -32 19 -13 18 -15 -18 -32 -28 -13 -36 -22 -30 -33 10 -24 7 -69 -6
-85 -10 -12 -18 -13 -49 -2 -49 17 -61 39 -41 74 12 22 22 27 47 24 18 -1 32
2 32 8 0 9 -14 14 -32 11 -5 0 -8 4 -8 9 0 16 -48 -13 -130 -80 -41 -33 -85
-63 -98 -66 -25 -7 -50 10 -61 40 -6 16 -12 11 -36 -30 -62 -109 -174 -243
-248 -298 -61 -45 -98 -47 -126 -7 -12 16 -21 34 -21 40 0 25 -18 7 -58 -58
-23 -37 -42 -71 -42 -75 0 -10 -150 -271 -202 -351 -43 -66 -92 -125 -104
-125 -3 0 2 10 10 22 20 28 20 44 1 52 -10 4 -22 -8 -36 -37 -31 -61 -154
-232 -185 -256 -43 -34 -56 -28 -40 17 29 80 102 187 239 349 45 54 99 121
119 148 40 56 111 185 104 192 -4 4 -19 -12 -178 -184 -118 -127 -185 -229
-222 -337 -9 -27 -27 -7 -35 39 -15 91 -41 16 -68 -197 -9 -76 -20 -138 -24
-138 -14 0 -29 37 -29 72 0 18 7 73 16 123 13 78 12 167 -2 152 -3 -3 -25 -83
-49 -179 -96 -380 -176 -551 -349 -738 -47 -52 -76 -91 -76 -105 0 -41 -68
-159 -154 -266 -142 -178 -219 -232 -228 -163 -3 27 -2 28 -179 -255 -152
-244 -244 -361 -285 -361 -19 0 -23 -8 -33 -74 -13 -93 -27 -132 -112 -331
-37 -88 -71 -179 -75 -203 -11 -68 -25 -35 -32 74 l-6 99 -13 -55 c-15 -67
-33 -324 -33 -477 0 -69 -4 -113 -10 -113 -5 0 -10 4 -10 8 0 5 -19 24 -41 42
l-42 33 5 -181 c3 -100 2 -182 -2 -182 -4 0 -11 10 -17 22 -8 18 -11 0 -15
-78 -3 -56 -11 -110 -17 -120 -5 -10 -33 -69 -60 -129 -60 -131 -71 -191 -71
-395 l0 -145 -211 3 c-237 5 -347 -6 -517 -48 -186 -47 -371 -128 -515 -226
l-52 -34 -9 142 c-5 86 -5 258 1 428 13 389 6 374 268 606 l79 70 -13 56 c-18
75 -9 104 50 160 l50 47 -17 32 c-16 33 -16 33 12 59 16 15 38 37 49 50 17 21
15 20 -15 -4 -33 -27 -38 -28 -106 -23 -130 11 -129 15 17 87 128 64 158 84
145 97 -3 3 -31 -11 -61 -32 -47 -32 -61 -37 -91 -32 -20 4 -39 8 -41 11 -3 3
8 28 23 56 26 47 29 50 38 31 19 -44 33 -24 66 94 22 80 47 135 62 135 14 0 9
-74 -7 -104 -8 -15 -15 -30 -15 -33 0 -5 134 108 138 116 4 12 -55 41 -83 41
-30 0 -61 -14 -92 -43 -72 -65 -6 75 105 223 43 58 98 122 123 143 l44 39 -39
-6 c-45 -6 -80 -35 -107 -89 -21 -41 -45 -41 -34 0 4 19 1 26 -14 30 -16 4 -1
25 97 134 123 137 201 241 183 247 -12 4 -105 -49 -172 -97 -34 -25 -45 -29
-47 -17 -5 22 22 70 93 166 68 92 95 140 95 166 0 13 -6 12 -34 -10 -46 -34
-54 -33 -22 4 28 34 42 86 31 120 -6 20 9 50 26 50 11 0 29 -67 30 -115 1 -78
10 -82 57 -26 46 54 72 97 72 120 0 21 -28 -6 -49 -47 l-18 -34 -11 70 c-22
129 -20 138 48 205 54 54 70 77 54 77 -3 0 -25 -5 -50 -11 -34 -9 -48 -9 -57
0 -16 16 7 31 48 31 38 0 21 19 -26 29 l-33 7 39 24 c48 29 116 82 112 87 -2
1 -22 -4 -45 -13 -51 -21 -76 -13 -70 21 7 35 -14 50 -51 37 l-29 -10 29 43
c16 24 50 89 74 145 55 123 85 170 125 193 27 16 30 22 24 52 -5 28 -3 34 16
40 12 4 57 31 101 61 44 30 84 52 88 49 17 -10 41 7 41 28 0 19 -1 19 -20 2
-21 -19 -27 -13 -32 33 -3 19 5 27 42 41 50 19 132 71 113 71 -7 0 -35 -9 -63
-20 -27 -11 -50 -17 -50 -13 0 4 12 19 27 35 34 35 27 43 -15 16 -21 -13 -35
-32 -39 -49 -9 -46 -55 -35 -64 14 -4 17 -8 16 -43 -12 -78 -62 -63 -5 24 96
71 81 212 205 262 231 34 17 39 22 24 28 -9 4 -29 1 -44 -5 l-27 -11 28 24
c15 14 45 31 67 37 22 7 39 17 37 23 -6 19 -57 18 -90 -3 -64 -39 -267 -259
-267 -288 0 -7 -4 -13 -10 -13 -15 0 -12 65 4 103 7 18 48 77 90 132 105 138
176 236 176 247 0 54 -373 -315 -471 -465 -41 -63 -39 -63 -52 8 -3 14 -13 2
-36 -45 -29 -59 -32 -72 -29 -148 2 -72 0 -85 -16 -94 -29 -16 -41 6 -39 72 1
62 -3 68 -40 49 -45 -24 -48 -57 -12 -144 34 -83 18 -96 -41 -31 -50 57 -45
63 -74 -88 -12 -60 -31 -134 -44 -165 -22 -55 -72 -141 -81 -141 -11 0 -35 62
-35 91 0 58 -1 56 -81 -263 -10 -38 -10 -38 -34 -22 -45 29 -59 12 -52 -61 7
-71 35 -135 69 -159 l22 -16 -30 0 c-18 0 -38 8 -48 19 -21 23 -56 113 -56
142 0 18 -3 19 -14 10 -28 -24 -28 -67 -1 -157 14 -47 25 -88 23 -90 -2 -1
-34 37 -72 86 -91 121 -99 118 -20 -6 24 -38 30 -53 20 -57 -16 -6 -29 2 -44
28 -11 19 -11 18 -12 -8 0 -15 21 -73 46 -129 58 -126 53 -145 -32 -124 -23 6
-25 5 -19 -11 14 -31 28 -148 22 -174 -13 -48 -23 -55 -47 -34 -27 24 -60 87
-60 113 0 29 -12 34 -27 12 -9 -12 -26 -20 -44 -20 -37 0 -38 -18 -4 -94 36
-81 34 -103 -10 -112 -19 -3 -35 -8 -35 -9 0 -2 5 -16 11 -32 16 -42 -8 -143
-37 -153 -47 -18 -54 -44 -55 -200 0 -123 -2 -140 -12 -113 -19 50 -33 59 -49
32 -9 -18 -13 -74 -13 -214 -1 -254 -3 -301 -14 -290 -14 15 -58 168 -77 269
-18 89 -18 89 -30 55 -21 -58 -16 -177 16 -355 17 -93 30 -184 28 -204 l-3
-35 -38 55 -37 55 0 -33 c0 -18 -9 -50 -20 -72 -11 -22 -20 -48 -20 -58 0 -31
38 -98 126 -223 146 -209 132 -157 144 -514 6 -171 17 -410 26 -532 l15 -222
-134 -133 c-186 -185 -335 -383 -479 -638 -247 -436 -376 -809 -430 -1250 -17
-136 -16 -543 0 -685 26 -212 68 -428 119 -610 50 -175 205 -575 391 -1008
l90 -208 -42 -40 -41 -39 42 20 c23 11 46 20 51 20 5 0 28 -46 52 -103 126
-294 242 -500 420 -742 54 -73 70 -105 89 -170 29 -108 107 -260 187 -370 36
-49 76 -106 88 -125 13 -20 61 -69 106 -110 l82 -74 -108 -21 c-111 -22 -154
-22 -328 0 -44 6 -57 5 -52 -4 15 -23 143 -79 240 -105 55 -15 102 -28 104
-30 2 -2 -12 -7 -30 -11 -18 -4 -89 -24 -158 -45 -69 -21 -159 -41 -200 -45
-41 -4 -95 -14 -120 -21 -24 -7 -46 -11 -49 -8 -3 2 -7 37 -10 76 -7 78 -18
79 -44 5 -6 -20 -16 -37 -22 -39 -5 -2 -16 20 -25 48 -10 33 -33 70 -67 109
-29 33 -53 56 -53 53 0 -26 33 -187 44 -213 l15 -34 -62 -3 -62 -3 90 -32 c50
-17 123 -34 163 -38 l73 -7 -3 -32 c-3 -26 0 -31 18 -29 12 1 50 19 85 40 l64
38 168 0 c157 0 168 -1 163 -18 -7 -26 14 -30 67 -12 43 14 49 14 79 -1 23
-12 65 -19 138 -21 82 -3 134 -12 235 -41 107 -29 147 -36 227 -36 l96 -1 104
52 c56 28 115 54 130 57 71 15 109 88 106 201 -1 38 6 64 30 110 17 33 36 90
42 128 7 37 16 67 21 67 14 0 11 -38 -12 -140 -27 -122 -33 -367 -9 -361 8 2
62 7 120 11 66 4 117 13 137 23 37 20 73 62 73 88 0 10 18 39 40 64 23 26 52
69 66 96 13 27 28 49 32 49 4 0 15 -20 26 -45 10 -25 35 -63 55 -84 20 -22 48
-54 63 -73 24 -32 32 -36 110 -46 122 -17 165 -15 241 14 l69 26 53 -27 c34
-17 65 -25 87 -23 32 3 33 5 36 52 4 55 -9 53 132 16 74 -20 99 -22 195 -16
61 3 129 10 152 16 62 15 153 50 153 60 0 4 -42 35 -93 68 -55 35 -116 85
-150 123 -65 72 -102 99 -134 99 -19 0 -23 5 -23 34 0 19 5 47 12 63 15 36 26
234 13 230 -5 -2 -27 -33 -50 -70 -56 -92 -69 -103 -59 -52 8 46 61 140 99
175 24 22 35 25 104 25 68 0 83 -3 119 -28 54 -35 99 -97 107 -149 9 -52 25
-32 25 32 -1 65 -61 175 -118 214 -35 25 -55 31 -112 34 -58 4 -77 0 -126 -22
-31 -14 -58 -25 -59 -24 -4 4 52 387 59 404 17 45 365 482 524 658 107 118
370 382 497 500 613 564 1414 1076 2212 1412 51 21 91 40 89 41 -5 5 -340
-124 -484 -186 -569 -246 -1231 -607 -1599 -870 -31 -23 -60 -38 -63 -34 -4 5
-12 28 -19 52 -54 188 -198 201 -408 37 -134 -105 -451 -462 -574 -647 -29
-43 -54 -77 -55 -76 -2 1 8 87 22 190 l24 188 109 162 c60 89 125 179 145 200
21 20 34 37 31 37 -9 0 -87 -54 -179 -123 l-79 -60 6 34 c3 19 25 167 48 329
38 268 43 297 64 315 688 598 910 784 1090 915 532 386 966 592 1400 666 138
24 407 24 535 0 468 -86 885 -404 1217 -928 30 -49 56 -88 58 -88 11 0 -97
228 -161 340 -251 439 -603 727 -1017 832 -80 20 -91 20 -442 9 l-360 -11
-140 -36 c-612 -156 -1190 -445 -1680 -841 -44 -36 -147 -128 -229 -206 -101
-96 -146 -133 -142 -117 4 14 10 32 12 41 4 16 181 192 314 313 l75 68 -70
-53 c-62 -47 -138 -109 -253 -204 -29 -24 -34 -26 -28 -10 4 11 28 78 53 150
202 587 508 1139 765 1380 136 127 271 197 384 198 44 1 61 4 57 13 -2 7 11
17 34 24 54 18 56 20 36 35 -17 13 -17 14 2 35 39 43 256 140 312 140 15 0 22
4 17 11 -4 8 -35 10 -92 7 l-86 -5 40 18 c21 10 75 32 120 49 44 16 89 37 100
45 17 13 16 14 -21 9 l-40 -6 53 32 c30 17 124 85 210 150 87 65 190 136 229
157 l72 39 -21 22 c-30 29 -15 42 54 49 l56 6 -30 44 c-17 25 -37 47 -45 50
-11 4 -10 8 4 18 36 25 130 46 274 60 80 8 164 21 185 29 36 13 31 14 -74 8
-107 -5 -192 8 -192 28 0 4 44 19 98 34 171 48 195 64 84 58 -125 -7 -121 2
16 37 97 25 130 37 122 45 -8 8 -2 14 22 22 33 12 33 12 -32 20 l-65 8 40 12
c22 7 61 13 88 13 52 1 53 2 35 32 -18 29 7 45 105 66 l79 17 -36 18 c-20 10
-36 23 -36 28 0 12 2 12 36 0 15 -6 36 -8 46 -4 18 5 17 8 -11 25 -44 27 -38
39 19 39 28 0 50 5 50 10 0 6 -6 10 -12 9 -24 -3 -38 1 -38 11 0 6 21 10 46
10 38 0 51 5 74 30 22 23 45 34 101 47 61 13 69 18 50 25 -44 16 -18 33 47 30
70 -4 110 16 137 69 17 33 16 34 -20 17 -18 -8 -29 -8 -36 -1 -15 15 29 37
105 53 32 7 75 18 95 26 l36 14 -35 -5 c-19 -2 -51 -1 -70 4 l-35 8 50 8 c52
8 115 30 115 40 0 3 -13 12 -29 18 -29 12 -27 14 92 54 l122 42 -35 12 -35 13
59 13 c53 12 161 61 153 70 -2 2 -28 -2 -57 -8 -30 -6 -82 -9 -116 -6 -55 4
-63 2 -67 -14 -11 -41 -67 -30 -67 12 0 25 -1 24 -64 -11 -75 -43 -115 -53
-148 -39 -16 6 -28 16 -28 22 0 6 -10 1 -23 -11 -17 -16 -36 -22 -71 -22 -61
0 -57 15 12 53 49 27 64 48 42 62 -14 9 -131 -16 -124 -26 3 -5 -8 -9 -25 -9
-42 0 -79 -16 -127 -56 -50 -40 -56 -42 -52 -12 2 14 19 32 43 46 l40 23 -35
-6 c-52 -10 -148 -43 -210 -73 -40 -20 -60 -37 -72 -62 l-17 -35 -1 66 c0 47
-5 70 -15 79 -12 10 -15 9 -15 -6 0 -37 -48 -121 -103 -180 -48 -51 -56 -56
-63 -40 -5 14 2 27 30 53 20 19 34 39 31 44 -8 12 -40 -5 -59 -33 l-16 -22 0
25 c0 13 6 49 14 79 8 30 13 56 11 58 -6 6 -43 -55 -55 -92 -7 -21 -10 -58 -7
-82 l5 -44 -34 21 c-19 11 -41 19 -48 16 -7 -3 -24 -30 -37 -61 -19 -48 -27
-56 -48 -56 -43 0 -55 14 -31 35 25 23 40 77 31 111 -7 26 -7 26 -26 -15 -36
-81 -257 -263 -314 -259 -14 1 -39 -5 -56 -14 -16 -8 -40 -19 -53 -22 l-22 -7
21 35 c14 24 19 48 17 76 l-3 41 -44 -75 c-50 -85 -85 -122 -156 -162 -39 -22
-46 -23 -34 -8 28 33 49 82 49 114 0 28 -2 30 -21 19 -12 -6 -24 -20 -27 -31
-17 -67 -149 -255 -166 -238 -7 7 -6 25 1 52 11 40 10 58 -2 46 -3 -3 -15 -54
-27 -114 -25 -127 -37 -151 -55 -108 -7 16 -12 41 -13 57 0 35 -16 35 -23 0
-3 -16 -13 -37 -21 -48 -15 -20 -15 -20 -16 5 -1 17 -8 6 -24 -36 -12 -33 -38
-82 -57 -108 l-34 -48 -6 34 c-7 46 -16 58 -45 58 -22 0 -24 -3 -17 -27 13
-51 4 -86 -44 -165 -26 -43 -50 -78 -54 -78 -4 0 -9 9 -12 21 -4 15 -12 20
-28 17 -20 -3 -28 -19 -60 -125 -35 -112 -72 -203 -84 -203 -3 0 -3 11 1 24 6
24 -8 42 -25 32 -6 -4 -5 -21 1 -42 11 -41 1 -54 -41 -54 -18 0 -22 4 -16 18
31 75 44 152 25 152 -5 0 -10 -8 -10 -18 0 -10 -10 -49 -23 -87 l-23 -68 -107
-24 c-96 -22 -303 -87 -402 -127 l-40 -16 29 22 c16 13 41 33 55 45 l26 21
-35 9 c-20 5 -36 17 -38 26 -3 14 5 17 45 17 l49 0 -4 35 c-4 35 29 107 62
135 9 7 16 17 16 23 0 6 -28 -17 -63 -50 -91 -87 -172 -124 -205 -91 -27 27
33 68 103 68 l32 0 -5 53 c-4 43 -2 50 9 40 16 -16 39 -17 39 -2 0 5 -13 15
-30 20 -49 17 -35 30 25 23 30 -4 55 -4 55 -1 0 3 -27 20 -60 38 -33 18 -58
34 -56 36 2 3 46 -1 98 -7 64 -8 101 -8 118 -1 l25 10 -30 1 c-29 1 -29 1 -11
15 19 14 19 15 -6 15 -14 0 -31 7 -38 15 -10 13 -9 15 10 15 48 0 140 74 118
95 -2 2 -40 -15 -85 -37 -93 -46 -116 -45 -111 4 3 32 5 33 58 40 84 12 213
81 286 154 33 33 63 70 66 82 4 12 5 22 3 22 -1 0 -23 -11 -47 -25 -106 -59
-240 -83 -284 -51 -19 15 -19 15 1 30 11 8 45 28 75 43 30 15 57 29 59 30 2 2
-3 20 -12 40 -9 21 -19 56 -23 78 -4 22 -13 53 -21 68 -8 16 -13 30 -11 31 2
2 62 42 133 91 156 106 158 107 114 95 -29 -8 -32 -7 -16 4 18 14 24 46 8 46
-5 0 -12 -7 -15 -15 -6 -17 -81 -55 -106 -54 -9 0 -4 8 13 20 28 21 57 67 57
91 0 7 -53 -40 -118 -105 -100 -99 -120 -116 -131 -104 -17 21 -55 29 -87 17
-26 -10 -26 -11 -9 -30 14 -16 17 -31 12 -76 -3 -30 -13 -66 -21 -79 -19 -28
-63 -40 -100 -25 l-28 10 27 31 c27 33 48 70 59 106 7 22 7 22 -34 6 -22 -9
-40 -22 -40 -30 0 -8 -4 -12 -8 -9 -4 2 -33 -19 -63 -47 -53 -50 -82 -103
-123 -231 -5 -14 -9 -16 -20 -6 -17 13 -40 -6 -69 -59 -11 -22 -22 -31 -32
-27 -8 3 -15 4 -15 3 0 -1 7 -24 15 -51 20 -67 20 -69 -16 -50 -26 13 -33 14
-40 2 -14 -21 -5 -33 29 -36 46 -5 44 -43 -4 -85 -20 -18 -45 -45 -55 -61
l-17 -29 -12 44 -12 44 -16 -32 c-9 -19 -23 -33 -33 -33 -23 0 -34 -19 -15
-26 21 -8 28 -32 15 -55 -8 -16 -17 -18 -42 -14 -34 7 -40 0 -117 -140 -12
-22 -31 -56 -42 -76 l-20 -35 -236 66 c-131 37 -264 75 -297 85 l-60 17 62 56
c337 309 483 431 756 636 495 370 955 650 1742 1061 93 48 76 42 -160 -57
-620 -262 -1171 -552 -1680 -886 -272 -178 -389 -268 -659 -505 -159 -140
-236 -202 -231 -186 36 115 243 647 337 864 111 255 156 302 328 344 47 12
111 31 143 42 l57 21 0 45 c0 55 30 86 101 104 48 12 49 14 49 50 0 35 2 37
38 44 l37 7 -40 13 c-22 6 -65 27 -95 46 l-55 34 135 6 c178 9 166 7 153 20
-8 8 -26 8 -67 -1 -51 -10 -58 -10 -86 10 -16 12 -30 23 -30 25 0 6 73 55 82
55 4 0 5 -7 2 -15 -14 -35 28 -11 78 45 53 61 95 96 105 87 8 -9 -26 -65 -49
-81 -12 -9 -20 -16 -18 -16 14 1 153 39 157 44 11 11 -26 53 -57 66 -25 10
-42 11 -74 2 -49 -13 -55 -9 -31 19 47 51 236 151 330 174 l50 13 -28 11 c-42
17 -66 14 -114 -15 -45 -26 -66 -26 -44 0 9 11 8 17 -4 30 -15 15 -15 17 2 22
73 25 258 102 306 126 92 49 73 58 -82 37 -45 -6 -85 -8 -89 -4 -11 11 56 62
135 101 75 37 133 78 133 95 0 5 -19 7 -42 4 l-43 -6 35 16 c42 19 69 52 70
83 0 12 7 25 16 29 28 11 35 -11 18 -63 -8 -27 -19 -61 -24 -76 l-8 -27 65 24
c67 24 113 58 99 72 -4 4 -25 -2 -47 -14 -35 -19 -39 -20 -35 -5 3 9 10 37 16
62 6 25 13 53 16 63 6 21 53 46 113 62 60 15 63 32 6 40 -25 4 -48 12 -51 17
-10 17 17 27 44 17 36 -14 37 -5 3 23 l-29 25 57 6 c32 4 68 11 82 16 22 9 20
10 -16 11 -54 1 -64 9 -62 50 2 31 -2 36 -30 45 l-33 11 33 12 c17 6 70 46
117 88 97 86 126 104 175 106 31 1 35 4 35 28 0 27 1 27 93 35 50 4 111 7 135
6 23 0 42 3 42 9 0 5 -9 10 -20 10 -16 0 -20 7 -20 31 0 30 1 31 32 25 18 -4
60 -3 93 1 l60 7 -65 11 -65 11 38 13 c20 7 37 16 37 21 0 14 -74 -10 -92 -31
-15 -17 -18 -18 -32 -3 -19 18 -20 36 -5 51 8 8 -5 8 -45 -1 -31 -7 -56 -10
-56 -5 0 15 65 57 131 82 90 36 266 80 290 74 13 -3 19 -1 16 6 -2 7 -17 15
-33 18 -49 10 -1 23 56 15 28 -4 50 -3 50 2 0 33 -72 42 -150 18 -71 -22 -202
-76 -237 -98 l-33 -20 0 20 c0 37 61 82 209 157 80 40 155 80 166 89 19 15 18
15 -16 16 -85 0 -413 -124 -546 -206 -21 -13 -23 -13 -23 9 0 13 5 28 12 35 9
9 9 12 0 12 -6 0 -34 -23 -61 -50 -38 -38 -55 -64 -67 -105 -12 -43 -20 -55
-35 -55 -29 0 -33 23 -11 74 11 24 18 47 14 50 -13 13 -53 5 -73 -15 -19 -19
-21 -29 -16 -86 6 -57 4 -64 -11 -61 -9 2 -24 23 -33 48 -9 25 -20 45 -24 45
-5 0 -38 -43 -74 -95 -46 -65 -86 -110 -129 -142 -35 -27 -68 -48 -74 -48 -7
0 -9 18 -6 50 l5 50 -36 -42 c-20 -23 -58 -69 -85 -102 -26 -34 -50 -63 -52
-65 -2 -2 -12 7 -22 19 -26 32 -47 21 -61 -34 -15 -61 -14 -101 4 -136 19 -37
3 -39 -32 -4 -24 24 -25 30 -19 95 6 67 5 69 -13 60 -25 -14 -41 -62 -41 -125
0 -90 -15 -83 -46 21 -29 99 -46 103 -21 5 13 -48 13 -53 -2 -50 -9 2 -17 13
-19 26 -2 12 -8 22 -14 22 -8 0 -9 -37 -4 -120 6 -106 5 -121 -9 -126 -9 -4
-29 2 -45 15 -16 11 -30 21 -32 21 -2 0 -4 -16 -5 -36 -2 -39 -51 -146 -69
-151 -17 -6 -34 44 -34 103 0 52 -1 54 -24 48 -13 -3 -34 -1 -45 6 -25 13 -24
14 -25 -85 l-1 -70 -37 1 c-34 1 -37 -1 -43 -34 -10 -53 -53 -102 -91 -102
-41 0 -55 -18 -97 -125 -54 -141 -51 -136 -55 -87 -2 25 -8 42 -15 42 -20 0
-73 -97 -108 -195 -32 -91 -85 -205 -95 -205 -8 0 4 132 22 229 8 46 13 85 11
88 -8 8 -65 -92 -80 -142 -9 -27 -27 -105 -41 -172 -14 -68 -32 -138 -40 -155
l-13 -33 -11 40 c-7 22 -12 49 -12 60 l-1 20 -10 -20 c-6 -11 -29 -37 -50 -57
-50 -47 -50 -67 -3 -234 56 -203 56 -223 -6 -384 -80 -207 -219 -618 -300
-885 -40 -132 -74 -242 -76 -243 -1 -2 -123 36 -271 86 -147 49 -321 102 -385
117 l-118 28 0 54 c0 49 2 54 19 48 44 -14 112 -8 134 12 12 11 42 23 67 27
25 4 60 11 78 17 l34 11 -52 24 c-35 16 -49 28 -44 36 22 38 103 135 139 170
24 21 46 49 49 62 4 16 23 33 56 49 53 26 55 37 7 37 -29 0 -30 1 -24 44 4 24
14 63 22 87 9 24 18 60 20 79 3 19 18 81 34 138 27 94 35 108 86 165 81 88
151 190 175 255 27 71 21 103 -8 42 l-21 -45 -20 45 -20 45 31 8 c34 9 78 35
78 47 0 4 -11 12 -25 18 -16 7 -36 35 -56 77 -17 37 -29 68 -28 69 2 2 32 16
66 31 86 38 94 50 41 60 l-43 8 35 7 c19 3 46 13 60 20 23 13 24 14 5 18 -29
6 -45 22 -45 43 0 16 4 17 26 9 64 -25 137 1 174 62 11 18 29 62 41 98 12 36
30 74 40 85 19 19 19 19 19 -13 0 -38 9 -40 40 -7 34 36 18 60 -76 111 l-79
44 78 0 c75 0 77 1 67 20 -34 63 41 131 116 106 19 -6 21 -3 16 20 -3 19 1 31
14 41 17 13 17 14 -4 29 -19 13 -31 44 -17 44 24 0 84 -35 88 -52 3 -11 11
-18 18 -16 9 3 12 21 10 57 -3 61 8 78 58 88 l36 7 -40 12 c-38 11 -40 13 -38
48 l3 37 -63 -64 c-34 -35 -85 -76 -114 -90 -48 -25 -133 -50 -141 -42 -8 8
76 125 206 283 51 63 134 175 184 249 50 75 109 156 132 181 48 53 135 114
214 150 42 19 52 27 37 30 -27 6 -55 32 -55 52 0 13 12 19 48 23 92 11 240 73
220 93 -3 2 -30 1 -60 -4 -64 -10 -78 -7 -78 18 0 22 102 75 165 85 87 14 94
16 89 30 -17 43 105 184 311 360 146 124 199 180 192 205 -4 15 3 20 33 25 58
10 153 59 182 94 15 17 37 59 49 92 19 52 25 60 43 55 12 -4 40 -9 63 -12 39
-6 45 -4 79 30 20 20 34 42 31 49 -6 17 64 64 118 78 22 6 46 13 54 15 9 3 6
10 -10 23 -49 39 14 63 201 77 l94 6 -54 17 c-75 24 -105 40 -92 53 5 5 29 8
53 6 35 -2 44 -7 43 -21 -2 -14 3 -16 20 -10 11 4 47 7 79 7 31 -1 57 2 57 6
0 15 -39 41 -86 56 -90 30 -100 60 -12 38 69 -18 238 -30 238 -17 0 5 -19 16
-42 23 -55 16 -138 58 -138 69 0 18 197 81 255 81 l30 0 -35 18 c-19 9 -36 24
-38 33 -2 14 5 15 60 7 39 -5 81 -5 110 2 64 13 281 112 265 121 -6 4 -46 12
-87 19 -41 7 -79 16 -83 20 -4 4 50 15 120 25 70 10 134 21 141 25 7 3 -31 15
-85 26 l-98 19 130 5 c119 5 128 6 103 19 -39 20 -25 31 40 32 44 0 52 2 35 9
-23 9 -29 27 -15 45 4 6 43 10 87 11 60 1 92 6 130 24 28 12 75 30 105 40 l55
17 -65 8 -65 8 45 15 c64 22 37 25 -99 13 -66 -6 -132 -11 -147 -11 -26 0 -26
1 -10 19 16 18 58 28 183 46 35 6 75 30 62 38 -2 2 -42 0 -89 -4z m-4580
-4168 c-10 -37 -48 -96 -56 -88 -2 2 2 19 10 38 8 19 19 73 26 119 6 47 14 92
18 100 11 25 14 -126 2 -169z m-1326 -253 c9 -36 8 -38 -29 -38 -41 0 -43 5
-13 37 27 29 34 29 42 1z m2996 -3 c0 -30 -2 -30 -43 -8 -29 15 -30 17 -12 24
39 15 55 10 55 -16z m-1182 -53 c23 -30 15 -57 -24 -71 -41 -15 -104 -7 -104
13 0 20 40 67 64 76 25 9 46 3 64 -18z m-159 -284 c-43 -57 -57 -70 -35 -33
19 31 56 75 64 75 2 0 -11 -19 -29 -42z m-149 -201 c0 -2 -16 -19 -36 -38 -33
-31 -35 -31 -19 -6 17 27 55 57 55 44z m4795 -146 c-13 -13 -121 -41 -157 -41
-43 0 -33 20 10 21 29 1 115 16 152 28 2 0 0 -3 -5 -8z m-5208 -567 c-2 -2
-30 1 -61 8 l-58 11 23 19 c13 11 38 25 54 33 l30 13 8 -40 c5 -22 7 -42 4
-44z m-199 -56 c-13 -36 -210 -844 -227 -933 -10 -48 -10 -47 -5 20 5 71 24
199 68 450 27 152 59 425 52 432 -3 3 -7 -10 -10 -28 -8 -47 -119 -800 -156
-1050 -47 -330 -50 -419 -15 -419 13 0 15 -26 15 -169 l0 -169 -31 -12 c-92
-39 -226 -144 -303 -239 -139 -172 -314 -523 -360 -725 -23 -99 -38 -292 -32
-426 6 -150 3 -134 -44 245 -118 956 -208 1954 -222 2483 l-3 104 100 63 c253
159 518 274 840 364 85 24 340 30 333 9z m149 -14 l51 -6 7 -47 c3 -25 7 -184
8 -353 3 -408 19 -366 25 64 l4 328 22 -5 c11 -3 82 -17 156 -31 121 -23 579
-130 586 -137 2 -2 -2 -21 -9 -43 -9 -30 -38 -65 -120 -144 -313 -301 -590
-694 -881 -1251 -71 -135 -79 -146 -112 -157 l-36 -11 6 157 c4 86 9 184 12
217 10 111 -29 -2 -51 -149 -13 -85 -15 -18 -5 160 23 417 102 785 230 1079
52 120 49 127 -10 20 -22 -41 -49 -98 -60 -127 -16 -45 -19 -49 -19 -23 -1 68
59 441 76 468 3 5 19 6 37 3 17 -3 54 -8 83 -12z m1403 -352 c129 -39 254 -76
278 -82 l43 -11 -36 -67 c-75 -140 -117 -249 -118 -306 l-2 -56 -42 0 -43 0 0
-57 c0 -32 -5 -65 -10 -73 -7 -11 -10 -6 -10 22 0 35 -14 57 -27 44 -4 -3 -1
-43 6 -87 12 -79 12 -82 -9 -96 -19 -13 -20 -21 -14 -69 4 -35 3 -54 -4 -54
-6 0 -13 6 -15 13 -3 7 -6 4 -6 -7 -1 -10 -58 -78 -128 -151 -71 -73 -162
-173 -203 -223 -75 -91 -75 -91 -115 -86 -22 2 -127 8 -234 14 -107 5 -195 11
-197 13 -2 2 67 247 154 545 l157 542 149 156 c118 123 154 155 170 151 12 -2
127 -36 256 -75z m1007 -79 c7 -19 -44 -46 -72 -39 -20 5 -25 12 -25 40 l0 34
47 -12 c26 -7 48 -17 50 -23z m609 -90 c-6 -15 -9 -15 -16 -3 -6 9 -5 17 3 22
16 10 21 2 13 -19z m-4522 -263 c71 -751 187 -1668 364 -2871 l48 -327 -41
-83 -42 -83 -11 35 c-27 86 -136 449 -148 494 -12 47 -13 41 -8 -80 6 -152 40
-571 54 -665 19 -129 8 -112 -26 40 -52 238 -111 543 -128 665 -9 61 -20 139
-25 175 -10 64 -10 64 -5 -20 3 -47 14 -152 25 -235 11 -82 26 -220 34 -305
26 -276 69 -510 120 -661 17 -50 25 -92 24 -138 l-1 -66 -14 45 c-81 252 -188
780 -229 1128 -42 358 -71 881 -62 1107 11 237 55 560 108 783 11 46 18 86 16
88 -6 6 -84 -266 -113 -396 -108 -479 -158 -935 -157 -1440 0 -403 26 -683 94
-1024 17 -81 29 -150 27 -152 -2 -2 -24 4 -48 13 -25 9 -79 16 -120 17 l-75 1
-57 105 c-666 1210 -741 2099 -276 3270 143 361 315 597 602 828 22 17 41 30
42 29 1 -1 14 -126 28 -277z m4473 185 c-23 -11 -47 15 -47 51 0 38 33 34 51
-6 15 -33 15 -35 -4 -45z m-57 53 c0 -31 -22 -87 -35 -92 -13 -4 -13 -2 -5 14
20 37 -16 55 -55 26 -15 -11 -18 -25 -16 -87 1 -41 -3 -90 -9 -109 -6 -19 -20
-71 -30 -115 -33 -149 -54 -215 -66 -211 -7 3 -20 -1 -30 -9 -14 -10 -16 -16
-7 -26 26 -34 35 -88 23 -146 l-12 -57 -24 51 c-14 28 -31 57 -39 63 -13 11
-15 2 -15 -61 -1 -158 -26 -226 -212 -565 -90 -164 -125 -243 -246 -557 -78
-202 -142 -369 -142 -373 0 -3 -76 -81 -168 -173 -92 -91 -206 -209 -252 -261
-46 -52 -87 -96 -91 -98 -3 -2 -1 28 7 65 7 37 45 250 84 473 39 223 81 446
94 495 16 58 28 146 35 245 16 226 37 309 98 388 23 31 24 35 9 51 -21 23 -20
33 5 65 29 37 43 23 35 -36 -6 -45 -5 -48 11 -39 52 28 74 67 94 172 13 65 33
126 52 162 28 54 32 57 59 52 30 -7 37 5 13 25 -20 17 -19 36 4 68 10 15 21
37 25 48 l6 21 41 -20 c28 -14 43 -17 51 -9 7 7 1 15 -20 26 -23 12 -33 26
-38 52 -5 29 -9 33 -16 20 -11 -19 -60 -46 -84 -46 -16 0 -15 3 4 20 12 11 27
38 33 61 13 43 41 69 73 69 18 0 19 -1 1 -20 -27 -30 -11 -35 27 -9 103 73
230 171 213 164 -35 -13 -97 -26 -103 -21 -9 10 221 111 448 197 173 65 170
64 170 47z m-2241 -313 c-16 -60 -66 -252 -110 -425 -44 -173 -85 -332 -90
-352 l-10 -38 -57 0 c-31 0 -117 -7 -191 -16 -73 -8 -135 -13 -138 -11 -12 13
152 309 270 487 111 165 344 476 352 468 2 -2 -10 -52 -26 -113z m1271 -484
c0 -19 -52 -71 -71 -71 -15 0 -19 7 -19 33 0 19 3 37 7 40 10 11 83 8 83 -2z
m-520 -281 c6 -41 17 -85 26 -98 l16 -24 -39 6 c-21 3 -100 11 -176 17 -76 7
-136 16 -135 20 2 5 66 75 143 156 l140 147 7 -75 c5 -41 12 -108 18 -149z
m196 -106 c-4 -15 -14 -24 -26 -24 -25 0 -25 7 2 50 18 28 23 31 26 17 2 -10
1 -29 -2 -43z m91 34 c-3 -13 -23 -107 -45 -211 -21 -103 -42 -190 -45 -194
-4 -3 -8 14 -8 38 -1 24 -4 35 -6 24 -3 -11 -10 -26 -16 -33 -6 -8 -14 -88
-18 -180 -6 -132 -17 -219 -53 -412 -25 -135 -66 -369 -92 -520 l-47 -275 -55
-70 c-108 -135 -120 -151 -184 -242 l-65 -92 -7 52 c-3 29 -6 106 -7 172 -1
118 -14 289 -17 230 -8 -138 -62 -422 -109 -570 l-35 -111 -167 0 c-181 0
-239 -10 -355 -63 -88 -40 -150 -94 -264 -228 -193 -226 -278 -355 -328 -502
l-22 -66 5 140 c5 142 16 213 94 615 94 479 255 960 431 1285 217 400 450 757
693 1058 68 84 71 87 105 82 19 -3 110 -5 203 -5 l167 0 2 -107 c1 -60 3 -90
5 -68 2 22 8 71 14 109 18 113 30 58 28 -139 -1 -300 4 -354 11 -110 8 254 19
318 58 323 26 4 28 -5 7 -28 -14 -15 -14 -20 0 -46 l15 -29 0 27 c0 15 5 39
12 55 6 15 12 34 14 42 4 20 56 71 72 71 10 0 13 -7 9 -22z m-1372 -484 c-59
-242 -126 -520 -150 -619 -41 -171 -47 -188 -129 -345 -47 -91 -86 -160 -86
-155 0 27 41 188 63 250 29 80 26 77 -76 -83 -136 -213 -286 -548 -346 -772
-13 -47 -26 -96 -30 -110 -9 -30 -21 292 -22 590 0 226 0 228 63 483 l12 48
11 -28 c11 -25 12 -23 7 23 -9 101 140 575 299 951 l60 142 52 15 c89 25 163
37 269 45 57 3 104 6 106 5 1 -1 -45 -199 -103 -440z m512 420 l81 -6 -67 -87
c-157 -203 -440 -631 -586 -887 -52 -93 -95 -165 -95 -161 0 18 193 767 225
872 20 66 48 158 62 204 l25 83 136 -6 c76 -4 174 -9 219 -12z m-1311 -617
c-24 -73 -50 -152 -57 -177 l-12 -45 -8 30 c-5 23 -7 17 -8 -30 -1 -33 -12
-112 -25 -175 -42 -198 -83 -492 -102 -742 -6 -79 -9 -88 -27 -88 -21 0 -90
-37 -144 -77 l-32 -24 -5 23 c-3 13 -10 77 -15 143 -42 500 -4 772 151 1070
64 123 197 298 281 370 l42 36 3 -91 c3 -86 0 -100 -42 -223z m2402 -588 c-10
-29 -61 -89 -273 -314 -52 -55 41 67 154 203 47 57 95 114 105 128 25 30 29
26 14 -17z m-3081 -441 c-3 -8 -6 -5 -6 6 -1 11 2 17 5 13 3 -3 4 -12 1 -19z
m2924 -253 c-16 -88 -39 -234 -52 -324 l-23 -163 -50 -49 c-28 -26 -52 -47
-53 -45 -1 1 4 43 12 93 7 50 18 160 25 245 21 280 12 250 92 334 39 41 72 73
74 71 2 -1 -10 -75 -25 -162z m-2475 -57 c-42 -411 -34 -596 38 -886 19 -77
26 -137 31 -287 l7 -190 34 -67 c42 -83 45 -122 4 -52 -23 40 -42 104 -80 275
-92 422 -183 910 -205 1104 -8 69 -7 71 89 129 85 51 90 49 82 -26z m2312 -75
c-24 -154 -48 -230 -121 -388 -33 -71 -79 -173 -102 -227 -37 -85 -111 -196
-122 -184 -2 2 12 100 31 218 19 117 40 244 46 282 10 61 18 79 73 155 58 80
204 261 210 261 2 0 -5 -53 -15 -117z m-2699 -38 c11 -60 17 -113 12 -118 -4
-4 -13 32 -20 80 -6 48 -14 104 -18 123 -3 19 -3 33 0 30 3 -3 15 -54 26 -115z
m3690 -150 c33 -16 98 -112 85 -124 -5 -4 -61 -45 -124 -91 -212 -154 -410
-320 -584 -489 -78 -77 -95 -89 -81 -61 26 52 84 134 168 239 41 52 99 137
128 190 113 205 178 289 256 330 45 24 113 27 152 6z m-3614 -187 c80 -330
174 -648 306 -1035 38 -112 69 -206 69 -210 0 -5 -43 57 -96 137 -152 231
-210 361 -338 755 -43 129 -43 131 -35 230 7 99 18 179 25 173 1 -2 17 -109
35 -237 18 -129 35 -229 37 -222 2 6 -11 123 -29 260 -27 212 -32 301 -15 301
2 0 21 -69 41 -152z m1855 -23 c0 -2 -13 -26 -28 -52 -16 -26 -95 -167 -177
-313 -157 -281 -242 -414 -306 -480 l-40 -41 -96 -414 c-54 -228 -98 -413
-100 -411 -2 1 -8 41 -14 87 -19 155 -70 274 -131 307 l-30 17 5 85 c9 157 99
534 157 659 86 182 267 359 475 461 104 51 285 112 285 95z m371 -207 c-16
-101 -35 -221 -42 -268 -10 -68 -20 -97 -50 -144 l-37 -60 -6 45 c-3 24 -8
107 -11 184 l-5 140 53 95 c75 136 122 209 125 200 2 -5 -10 -91 -27 -192z
m422 -232 l-24 -190 -61 -119 c-64 -127 -88 -197 -88 -264 0 -23 -4 -45 -10
-48 -6 -4 -10 5 -10 20 0 43 -15 21 -40 -59 -13 -42 -25 -74 -27 -72 -2 1 6
47 17 100 21 105 28 221 16 274 -7 31 -12 22 -61 -120 -29 -84 -83 -241 -120
-348 -64 -187 -99 -270 -112 -270 -14 0 8 269 35 430 l29 175 84 137 c45 76
125 190 177 255 52 65 121 157 155 205 33 49 61 87 62 85 1 -1 -9 -87 -22
-191z m-597 -135 l-14 -221 -35 -63 c-19 -34 -81 -152 -136 -262 -56 -110
-117 -218 -137 -240 l-35 -40 5 85 c2 47 13 117 24 155 21 77 98 289 156 430
45 108 178 386 183 381 2 -2 -3 -103 -11 -225z m-2738 -76 c85 -36 136 -116
207 -323 29 -86 74 -205 99 -264 24 -60 43 -108 42 -108 -13 0 -446 684 -446
704 0 12 61 6 98 -9z m2722 -814 l0 -239 -42 -63 c-24 -35 -61 -82 -83 -104
-40 -41 -124 -115 -129 -115 -2 0 -6 20 -10 45 -5 39 2 66 43 178 102 279 132
347 149 347 13 0 14 2 4 9 -10 6 -9 18 7 57 36 90 51 124 56 124 3 0 5 -107 5
-239z m485 -168 l-18 -169 -40 -22 c-22 -12 -42 -21 -44 -19 -2 2 1 28 7 57 5
29 10 82 10 118 0 61 3 70 47 138 26 40 49 71 51 69 2 -2 -4 -80 -13 -172z
m-1938 -223 l28 -115 3 55 c2 30 8 60 14 65 7 7 9 -9 5 -55 -10 -101 -28 -190
-38 -184 -16 10 -39 75 -78 220 l-37 141 20 27 20 27 17 -33 c9 -18 30 -85 46
-148z m1874 -253 c-30 -30 -37 -14 -9 23 18 25 24 28 26 15 2 -10 -5 -27 -17
-38z m-1036 -146 c3 -5 1 -12 -5 -16 -5 -3 -10 1 -10 9 0 18 6 21 15 7z"/>
<path d="M1612 2420 c0 -14 2 -19 5 -12 2 6 2 18 0 25 -3 6 -5 1 -5 -13z"/>
<path d="M2297 10917 c-14 -12 -30 -32 -36 -43 -10 -20 -8 -21 44 -22 30 0 55
3 55 7 0 4 -8 23 -18 43 l-19 36 -26 -21z"/>
<path d="M6005 10100 c-45 -18 -45 -34 2 -56 l44 -21 -3 43 c-3 45 -8 49 -43
34z"/>
<path d="M1191 9994 c-7 -8 -19 -13 -26 -10 -18 6 -28 -41 -20 -87 4 -19 20
-50 36 -68 l28 -34 1 108 c0 59 -1 107 -2 107 -2 -1 -9 -8 -17 -16z"/>
<path d="M4715 9756 c-15 -38 -15 -50 -4 -83 12 -37 12 -37 22 -13 6 14 21 46
33 72 28 56 29 62 9 55 -8 -4 -17 -2 -20 3 -12 19 -24 9 -40 -34z"/>
</g>
</svg>
